<svg id="Layer_1" xmlns="http://www.w3.org/2000/svg" viewBox="0 0 157.4 157.4"><style>.st0{fill:#4c8fff}</style><title>Asset 1logo</title><g id="Layer_2"><path class="st0" d="M116.5 119.8c-1.1 1.8-3 2.9-5.1 2.8-2.1.1-4-1-5-2.8L62.3 43.6c-.5-.9-.7-1.9-.7-2.9 0-3.2 2.6-5.9 5.8-6h26.4c3.3.1 5.9 2.7 5.9 6v44.9c0 2.2 1.7 3.9 3.9 3.9.7 0 1.3-.1 1.9-.5l27.3-15.7c1.8-1 2.5-3.3 1.5-5.1l-.1-.1L120 43.6c-.5-.9-.7-1.9-.7-2.9 0-3.2 2.6-5.9 5.8-6h17.7C128.8 14.7 105.3 1 78.7 1 35.8 1 1 35.8 1 78.7c0 5 .5 9.9 1.4 14.8.9 0 1.8.3 2.7.7l20.6 12.4c.6.3 1.3.5 2 .5 2.2 0 4-1.7 4.1-3.9V40.6c-.1-3.2 2.4-5.8 5.5-5.9H51c3.2 0 5.7 2.7 5.7 5.8v41.1c0 21.5-17.5 39-39 39h-4.3c13.8 21 37.9 35.7 65.3 35.7 42.9 0 77.7-34.8 77.7-77.7 0-7.6-1.1-15.2-3.3-22.4l-36.6 63.6z" id="Layer_1-2"/></g></svg>